<mxfile host="drawio-plugin" modified="2021-05-18T22:04:26.021Z" agent="5.0 (Windows NT 6.2; Win64; x64) AppleWebKit/537.36 (KHTML, like Gecko) Chrome/87.0.4280.141 Safari/537.36" version="14.6.6" etag="JfXs23Xgd_WUL-ItBRI9" type="embed"><diagram id="hkAsH36lC30jvHGyaaFf" name="Page-1"><mxGraphModel dx="609" dy="246" grid="1" gridSize="10" guides="1" tooltips="1" connect="1" arrows="1" fold="1" page="1" pageScale="1" pageWidth="850" pageHeight="1100" math="0" shadow="0"><root><mxCell id="0"/><mxCell id="1" parent="0"/><mxCell id="17" style="edgeStyle=orthogonalEdgeStyle;rounded=0;orthogonalLoop=1;jettySize=auto;html=1;exitX=0.5;exitY=1;exitDx=0;exitDy=0;" edge="1" parent="1" source="2"><mxGeometry relative="1" as="geometry"><mxPoint x="415" y="190" as="targetPoint"/></mxGeometry></mxCell><mxCell id="2" value="&lt;p style=&quot;margin: 0px ; margin-top: 6px ; text-align: center&quot;&gt;&lt;b&gt;Component&lt;/b&gt;&lt;/p&gt;&lt;hr&gt;&lt;p style=&quot;margin: 0px ; margin-left: 8px&quot;&gt;+ add()&lt;br&gt;+ remove()&lt;/p&gt;&lt;p style=&quot;margin: 0px ; margin-left: 8px&quot;&gt;+ is_composite()&lt;/p&gt;&lt;p style=&quot;margin: 0px ; margin-left: 8px&quot;&gt;+ operation()&lt;/p&gt;" style="align=left;overflow=fill;html=1;dropTarget=0;" vertex="1" parent="1"><mxGeometry x="325" y="100" width="180" height="90" as="geometry"/></mxCell><mxCell id="3" value="" style="shape=component;jettyWidth=8;jettyHeight=4;" vertex="1" parent="2"><mxGeometry x="1" width="20" height="20" relative="1" as="geometry"><mxPoint x="-24" y="4" as="offset"/></mxGeometry></mxCell><mxCell id="4" value="Leaf" style="swimlane;fontStyle=1;align=center;verticalAlign=top;childLayout=stackLayout;horizontal=1;startSize=26;horizontalStack=0;resizeParent=1;resizeParentMax=0;resizeLast=0;collapsible=1;marginBottom=0;" vertex="1" parent="1"><mxGeometry x="205" y="250" width="160" height="70" as="geometry"/></mxCell><mxCell id="6" value="" style="line;strokeWidth=1;fillColor=none;align=left;verticalAlign=middle;spacingTop=-1;spacingLeft=3;spacingRight=3;rotatable=0;labelPosition=right;points=[];portConstraint=eastwest;" vertex="1" parent="4"><mxGeometry y="26" width="160" height="8" as="geometry"/></mxCell><mxCell id="7" value="+ is_composite()&#10;+ operation()" style="text;strokeColor=none;fillColor=none;align=left;verticalAlign=top;spacingLeft=4;spacingRight=4;overflow=hidden;rotatable=0;points=[[0,0.5],[1,0.5]];portConstraint=eastwest;" vertex="1" parent="4"><mxGeometry y="34" width="160" height="36" as="geometry"/></mxCell><mxCell id="8" value="Composite" style="swimlane;fontStyle=1;align=center;verticalAlign=top;childLayout=stackLayout;horizontal=1;startSize=26;horizontalStack=0;resizeParent=1;resizeParentMax=0;resizeLast=0;collapsible=1;marginBottom=0;" vertex="1" parent="1"><mxGeometry x="485" y="250" width="160" height="100" as="geometry"/></mxCell><mxCell id="10" value="" style="line;strokeWidth=1;fillColor=none;align=left;verticalAlign=middle;spacingTop=-1;spacingLeft=3;spacingRight=3;rotatable=0;labelPosition=right;points=[];portConstraint=eastwest;" vertex="1" parent="8"><mxGeometry y="26" width="160" height="8" as="geometry"/></mxCell><mxCell id="11" value="+ add()&#10;+ remove()&#10;+ is_composite()&#10;+ operation()" style="text;strokeColor=none;fillColor=none;align=left;verticalAlign=top;spacingLeft=4;spacingRight=4;overflow=hidden;rotatable=0;points=[[0,0.5],[1,0.5]];portConstraint=eastwest;" vertex="1" parent="8"><mxGeometry y="34" width="160" height="66" as="geometry"/></mxCell><mxCell id="13" value="" style="endArrow=diamondThin;endFill=1;endSize=24;html=1;entryX=0.5;entryY=0;entryDx=0;entryDy=0;exitX=1;exitY=0.5;exitDx=0;exitDy=0;" edge="1" parent="1" source="2" target="8"><mxGeometry width="160" relative="1" as="geometry"><mxPoint x="495" y="180" as="sourcePoint"/><mxPoint x="655" y="180" as="targetPoint"/><Array as="points"><mxPoint x="565" y="145"/></Array></mxGeometry></mxCell><mxCell id="15" value="Extends" style="endArrow=block;endSize=16;endFill=0;html=1;exitX=0.75;exitY=0;exitDx=0;exitDy=0;entryX=0.5;entryY=1;entryDx=0;entryDy=0;" edge="1" parent="1" source="4" target="2"><mxGeometry width="160" relative="1" as="geometry"><mxPoint x="395" y="260" as="sourcePoint"/><mxPoint x="555" y="260" as="targetPoint"/><Array as="points"><mxPoint x="325" y="230"/><mxPoint x="415" y="230"/></Array></mxGeometry></mxCell><mxCell id="16" value="Extends" style="endArrow=block;endSize=16;endFill=0;html=1;exitX=0.25;exitY=0;exitDx=0;exitDy=0;entryX=0.5;entryY=1;entryDx=0;entryDy=0;" edge="1" parent="1" source="8" target="2"><mxGeometry width="160" relative="1" as="geometry"><mxPoint x="635" y="240" as="sourcePoint"/><mxPoint x="795" y="240" as="targetPoint"/><Array as="points"><mxPoint x="525" y="230"/><mxPoint x="415" y="230"/></Array></mxGeometry></mxCell></root></mxGraphModel></diagram></mxfile>